<?xml version="1.0" encoding="UTF-8" standalone="no"?>
<svg width="61px" height="73px" viewBox="0 0 61 73" version="1.1" xmlns="http://www.w3.org/2000/svg" xmlns:xlink="http://www.w3.org/1999/xlink" xmlns:sketch="http://www.bohemiancoding.com/sketch/ns">
    <!-- Generator: Sketch 3.2.1 (9977) - http://www.bohemiancoding.com/sketch -->
    <title>logo</title>
    <desc>Created with Sketch.</desc>
    <defs></defs>
    <g id="Page-1" stroke="none" stroke-width="1" fill="none" fill-rule="evenodd" sketch:type="MSPage">
        <g id="Group" sketch:type="MSLayerGroup">
            <path d="M0.73504145,31.5926933 C1.29605407,31.4571128 1.90134809,31.3667272 2.55094165,31.3215337 C3.20053521,31.2763402 3.8427374,31.2537438 4.47756747,31.2537438 C5.15668801,31.2537438 5.84687082,31.321533 6.5481366,31.4571135 C7.24940238,31.592694 7.88791375,31.8412546 8.46368986,32.2028026 C9.03946597,32.5643506 9.50819975,33.0614717 9.86990526,33.6941807 C10.2316108,34.3268898 10.4124608,35.1328285 10.4124608,36.1120211 C10.4124608,37.0761492 10.2426832,37.88962 9.90312294,38.5524581 C9.56356267,39.2152961 9.11328298,39.753844 8.55227036,40.1681177 C7.99125773,40.5823915 7.34905555,40.879911 6.62564454,41.060685 C5.90223352,41.241459 5.15668846,41.3318446 4.38898697,41.3318446 L4.02359242,41.3318446 C3.85381228,41.3318446 3.67665306,41.3280786 3.49210944,41.3205463 C3.30756581,41.3130141 3.12671577,41.3017159 2.94955389,41.2866514 C2.77239201,41.2715869 2.64690422,41.2565226 2.57308677,41.2414581 L2.57308677,47.252164 L0.73504145,47.252164 L0.73504145,31.5926933 Z M4.44059566,33.0025589 C4.05382034,33.0025589 3.68192657,33.0100435 3.3249032,33.0250128 C2.96787983,33.0399822 2.68524057,33.077405 2.47697693,33.1372825 L2.47697693,39.6489202 C2.5513568,39.6788589 2.67036281,39.6975703 2.83399852,39.705055 C2.99763423,39.7125397 3.16870536,39.7200242 3.34721705,39.7275089 C3.52572874,39.7349936 3.69679987,39.7387359 3.86043558,39.7387359 L4.21745717,39.7387359 C4.72324028,39.7387359 5.22529686,39.6900862 5.72364198,39.5927854 C6.22198711,39.4954845 6.67197856,39.3195972 7.07362986,39.0651182 C7.47528115,38.8106391 7.79882873,38.4513799 8.04428229,37.9873299 C8.28973586,37.5232798 8.4124608,36.9319991 8.4124608,36.2134699 C8.4124608,35.5997263 8.29717374,35.0870335 8.06659614,34.6753762 C7.83601855,34.2637189 7.53106566,33.934398 7.15172833,33.6874036 C6.772391,33.4404092 6.34471316,33.2645219 5.868682,33.1597364 C5.39265084,33.0549509 4.91662682,33.0025589 4.44059566,33.0025589 L4.44059566,33.0025589 Z" id="P" fill="#FFFFFF" sketch:type="MSShapeGroup"></path>
            <path d="M56.7932242,42.5849648 L50.6823655,42.5849648 L49.2284809,47.0188126 L47.3656913,47.0188126 L52.6814568,31.0203924 L54.9077176,31.0203924 L60.2689171,47.0188126 L58.2925427,47.0188126 L56.7932242,42.5849648 Z M51.1607577,40.9241764 L56.2208462,40.9241764 L53.8518048,33.305881 L53.5757999,33.305881 L51.1607577,40.9241764 Z" id="A" fill="#FFFFFF" sketch:type="MSShapeGroup"></path>
            <path d="M11.2027743,56.9723979 L46.4743664,21.5335098" id="Line" stroke="#FFFFFF" stroke-width="2" stroke-linecap="square" sketch:type="MSShapeGroup"></path>
            <path d="M11.8963318,21.3001585 L47.1679238,56.7390466" id="Line" stroke="#FFFFFF" stroke-width="2" stroke-linecap="square" sketch:type="MSShapeGroup"></path>
            <path d="M23.4328201,24.0490673 L25.3780047,24.0490673 L25.3780047,19.0179523 L23.4328201,19.0179523 L23.4328201,17.6719083 L28.839774,17.6719083 L28.839774,19.0179523 L26.8835996,19.0179523 L26.8835996,24.0490673 L28.839774,24.0490673 L28.839774,25.3951112 L23.4328201,25.3951112 L23.4328201,24.0490673 Z M29.8288509,21.5335098 C29.8288509,20.908295 29.8874623,20.3456101 30.0046868,19.8454383 C30.1219113,19.3452665 30.3014086,18.9241722 30.5431842,18.582143 C30.7849598,18.2401137 31.0871747,17.9771597 31.4498381,17.793273 C31.8125014,17.6093863 32.2392655,17.5174443 32.7301432,17.5174443 C33.2576535,17.5174443 33.7045653,17.6167416 34.0708919,17.8153393 C34.4372185,18.0139369 34.7357702,18.2897628 34.966556,18.6428253 C35.1973418,18.9958877 35.3658495,19.4188208 35.4720842,19.9116372 C35.5783189,20.4044535 35.6314355,20.9450723 35.6314355,21.5335098 C35.6314355,22.7912948 35.3914952,23.7750739 34.9116073,24.4848766 C34.4317194,25.1946793 33.704572,25.5495753 32.7301432,25.5495753 C32.2026329,25.5495753 31.7538895,25.450278 31.3838996,25.2516803 C31.0139097,25.0530827 30.7135264,24.7772568 30.4827406,24.4241943 C30.2519549,24.0711318 30.0852787,23.6481988 29.9827073,23.1553824 C29.8801358,22.662566 29.8288509,22.1219472 29.8288509,21.5335098 L29.8288509,21.5335098 Z M31.411374,21.5335098 C31.411374,21.9086387 31.4278584,22.2580182 31.4608278,22.5816588 C31.4937972,22.9052994 31.5560718,23.1866418 31.6476534,23.4256945 C31.7392351,23.6647472 31.8711107,23.8541477 32.0432842,23.9939016 C32.2154577,24.1336555 32.4444084,24.2035314 32.7301432,24.2035314 C32.9865718,24.2035314 33.1990381,24.150205 33.3675483,24.0435507 C33.5360586,23.9368965 33.6715974,23.7732397 33.7741688,23.5525757 C33.8767403,23.3319117 33.9481729,23.0542469 33.9884688,22.7195731 C34.0287648,22.3848993 34.0489124,21.9895488 34.0489124,21.5335098 C34.0489124,21.1730919 34.0360912,20.8310677 34.0104483,20.5074271 C33.9848055,20.1837865 33.9261941,19.9006053 33.8346124,19.6578748 C33.7430308,19.4151444 33.6093236,19.2220662 33.4334868,19.0786346 C33.25765,18.935203 33.0232045,18.8634882 32.7301432,18.8634882 C32.2172859,18.8634882 31.8692809,19.0878266 31.6861175,19.5365102 C31.5029542,19.9851937 31.411374,20.6508536 31.411374,21.5335098 L31.411374,21.5335098 Z" id="IO" fill="#FEFEFE" sketch:type="MSShapeGroup"></path>
            <path d="M22.5665709,8.71957159 C22.482124,8.58665395 22.2102343,6.17007083 22.193528,5.40393866 C22.1596349,3.84960322 22.4970338,3.24300061 23.7656381,2.57747497 C25.1460283,1.85330516 26.790485,1.48739475 28.1927658,1.59238845 C28.4148594,1.60901755 29.0925301,1.70952846 29.6987009,1.81574608 C30.8501483,2.01751158 31.4670457,2.05299625 31.6855374,1.93003329 C31.817191,1.85594127 31.8605218,1.68030404 31.7423221,1.69986478 C31.6468901,1.7156577 29.1737565,1.33447344 29.0187309,1.28007789 C28.901336,1.23888482 28.8995161,1.23405048 28.9782939,1.17264779 C29.1093502,1.07049652 30.0333978,0.821967779 30.3346689,0.807841986 C30.8850658,0.782035218 31.7059112,0.919558005 32.0771509,1.09977365 C33.5051521,1.89571374 34.2627354,4.06520276 34.8178152,5.549749 C35.2618166,6.76390875 35.3692784,7.13091463 35.3074897,7.22211673 C35.2122994,7.3626201 33.9729728,7.88749731 32.4455303,8.43420974 C31.1644757,8.89273121 30.7291883,8.99186129 30.3892501,8.90248814 C25.6388893,7.88297962 23.1364306,8.79672665 22.5665709,8.71957159 L22.5665709,8.71957159 Z M38.0372209,12.4189768 C35.770476,12.3375643 33.5086845,12.1885849 31.2404814,12.1712461 C29.4712494,12.1643838 27.7056926,12.2844558 25.9446152,12.4528668 C24.1237871,12.6961261 22.1069856,13.3120961 20.4539171,14.1334404 C19.6691746,14.6360762 17.1955381,15.4952694 17.3466643,13.6867429 C17.4091041,13.2197133 17.4376793,13.1334432 17.6735727,12.6997569 C18.4150953,11.3364759 19.4572411,10.3556695 20.7776512,9.77838197 C21.7529853,9.35196013 22.0355835,9.27103009 23.2303323,9.07598192 C25.3483897,8.73020228 27.0292264,8.69507904 28.7667679,8.9602926 C30.9139609,9.28803314 32.4904365,9.80961413 34.9668424,11.011607 C36.0521077,11.5383685 37.3501028,11.9835235 38.1130119,12.0906028 C38.9459835,12.2075176 39.617492,12.0497738 40.2492145,11.5887892 C40.6343268,11.3077648 41.0493374,10.7251413 40.8396924,10.7598352 C40.8129037,10.7642684 40.7065364,10.8798397 40.6033209,11.0166616 C40.1389285,11.6322506 39.2594891,11.9811178 38.4035448,11.8892974 C37.981312,11.8440011 36.7304823,11.5179924 36.284983,11.3371261 C35.8613449,11.1651346 34.4023689,10.4744639 34.2005495,10.3503678 C34.1160032,10.2983813 34.0566907,10.2313601 34.0687394,10.2014298 C34.0807906,10.1714965 34.2816758,10.0879743 34.5151482,10.0158239 C36.1158079,9.56217698 36.6768756,9.01549704 35.9122219,7.48862832 C35.6866782,7.05625933 35.3977729,6.41010585 35.3779686,6.29373315 C36.8591116,5.38732096 39.9837407,7.61846793 40.7938649,8.59796816 C40.9237645,8.81986211 41.0562653,9.00576687 41.0883089,9.01109247 C41.1203552,9.01641727 41.1735765,8.95838838 41.2065794,8.8821383 C40.7462134,7.50780832 39.4121154,6.09854354 38.5427056,5.54658823 C37.4814215,4.9903925 36.295067,4.71510419 35.1070994,4.69810247 C34.8497713,4.70385009 34.6903749,4.60783556 34.6635589,4.43093137 C34.6476833,4.32620114 34.666135,4.30592279 34.7969433,4.28434214 C36.9795213,4.15662844 38.7203923,4.92214779 40.3468902,6.48432145 C41.6149381,7.86847672 42.245938,9.74779755 41.1915278,11.4216724 C40.4211782,12.3828185 39.1056243,12.3972317 38.0372209,12.4189768 L38.0372209,12.4189768 L38.0372209,12.4189768 Z" id="path6972" fill="#FFFFFF" sketch:type="MSShapeGroup"></path>
            <g id="357_hud_icon-2" transform="translate(23.193548, 65.567930) scale(-1, 1) rotate(-53.000000) translate(-23.193548, -65.567930) translate(11.806452, 59.641390)" fill="#FFFFFF" sketch:type="MSShapeGroup">
                <path d="M22.7701456,10.7439643 C22.7809934,10.7888042 22.7701456,10.8222303 22.7363071,10.8446231 C22.3244695,11.2595415 21.5233534,11.5397229 20.332581,11.685439 C19.7200326,11.7636506 19.135872,11.7975659 18.5793434,11.7861521 C18.5126377,11.7861521 18.4795008,11.752726 18.4795008,11.685439 C18.4234269,11.1922545 18.2620596,10.7493994 17.9951288,10.3569824 C17.9728936,10.3346984 17.966903,10.3065987 17.9782365,10.2727378 C18.0451581,10.1385442 18.078349,9.97608793 18.078349,9.78564068 C18.078349,9.47154403 17.9836874,9.16940468 17.7945799,8.8775921 C17.761389,8.84362248 17.7553445,8.81025073 17.7776337,8.77638982 C17.8668984,8.55246211 17.9114229,8.32869746 17.9114229,8.10433495 C17.9114229,7.85736226 17.855457,7.63903275 17.7446586,7.4486942 C17.4994773,7.00040398 16.9596792,6.71418959 16.1250484,6.590975 L16.0918574,6.590975 C16.047279,6.96094487 15.9521856,7.2073197 15.8076566,7.33042558 C15.3739076,7.77920497 14.8059376,8.00291527 14.104988,8.00291527 C13.4260578,8.00291527 12.8973233,7.78464011 12.5191084,7.34727451 L12.4685934,7.28004185 C12.3793286,7.19095993 12.3022609,7.04480906 12.2347996,6.84332848 C12.1684717,6.64141308 12.134849,6.46781476 12.134849,6.32177259 C12.134849,6.04208037 12.0679274,5.83407762 11.9347858,5.69999275 C11.8674325,5.64352166 11.7064969,5.60476913 11.4500361,5.58226765 L10.4489648,5.58226765 C10.3924592,5.58226765 10.3652588,5.55433104 10.3652588,5.49807736 L9.86404857,3.59817036 L0.44818188,3.59817036 C0.392647761,3.59817036 0.359025062,3.57572324 0.34812332,3.53082899 C0.314392684,3.32885925 0.281309676,3.18330624 0.248172698,3.09373516 C0.214334124,3.00378362 0.186216265,2.83578349 0.164250875,2.5890282 C0.0975451683,2.34270773 0.064516129,2.12970465 0.064516129,1.95018203 C0.064516129,1.75968043 0.114383502,1.53591578 0.214280155,1.277638 C0.23651539,1.23317856 0.269706337,1.21029663 0.314338715,1.21029663 L0.381260298,1.21029663 L0.381260298,0.89109095 C0.381260298,0.834619861 0.408892435,0.806737601 0.464858307,0.806737601 L0.548132502,0.806737601 L0.548132502,0.773311499 C0.548132502,0.705970134 0.581755201,0.672109221 0.648083124,0.672109221 L0.698706064,0.672109221 C0.698706064,0.560417126 0.734433554,0.470574287 0.806967914,0.403395976 C0.879718151,0.336054611 0.970979761,0.302737212 1.08280357,0.302737212 L2.7687957,0.672109221 L9.81428914,0.672109221 L9.89799508,0.63868312 L9.9479704,0.604822207 C9.95892611,0.593843228 9.97517078,0.588299386 9.99805364,0.588299386 L14.1549093,0.588299386 L14.138125,0.554329771 L15.106599,0.386329641 L15.190305,0.0502750307 C15.190305,0.0163054154 15.2071973,0 15.2403882,0 L15.4907505,0 C15.5348971,0 15.55778,0.0163054154 15.55778,0.0502750307 L15.6076474,0.68895815 L15.6076474,0.722873414 L15.5407258,0.823640881 L15.7077059,0.823640881 C15.7523923,0.823640881 15.7799165,0.848859924 15.7914119,0.899080603 C15.8023676,0.949518688 15.8244949,1.01408813 15.8581176,1.09251718 C15.8691812,1.07055922 15.8858577,1.05903673 15.9083088,1.05903673 L16.0581807,1.05903673 C16.1142546,1.05903673 16.1419946,1.08697334 16.1419946,1.14328137 C16.1419946,1.30030252 16.2142052,1.37862287 16.3588421,1.37862287 C16.4925234,1.37862287 16.6261507,1.31133585 16.759832,1.17665312 C16.9822383,0.974683379 17.2549437,0.873970263 17.5778943,0.873970263 C17.7555064,0.873970263 17.8722953,0.907342014 17.9283691,0.974683379 C17.9729475,1.01957762 17.9891922,1.07594001 17.9783444,1.14333573 C17.966957,1.19920895 17.9311216,1.24116822 17.8696508,1.26921353 C17.8088278,1.29709579 17.7114137,1.32774997 17.5778943,1.36182829 C17.3104778,1.42906095 17.1382627,1.49640232 17.0597918,1.56368933 C16.8261059,1.79903083 16.6984692,2.03986181 16.6762339,2.28607359 C16.7984198,2.37645994 16.9430028,2.46026977 17.1104147,2.53842706 C17.4218159,2.69566562 17.900683,2.79078054 18.5462604,2.82475016 L18.562613,2.82475016 L18.5793974,2.82475016 L18.5793974,2.84127298 L19.0300387,2.97579266 C19.0522739,2.99829413 19.0745092,3.02063255 19.0967444,3.04307967 C19.2191461,3.35663281 19.3642688,3.63148776 19.531141,3.8667749 C19.7424837,4.15858749 20.0876156,4.685035 20.5663748,5.44747622 C21.1446528,6.3555248 21.5289662,7.01116555 21.7179657,7.41456153 C22.1076759,8.30005428 22.4581508,9.41012696 22.7701456,10.7439643 L22.7701456,10.7439643 Z M15.8709677,6.44020103 C15.8709677,6.76625983 15.7478127,7.05835531 15.5021527,7.31686907 C15.2005772,7.62041286 14.7591586,7.77251185 14.1780596,7.77251185 C13.5630969,7.77251185 13.110842,7.62041286 12.8205363,7.31686907 C12.5744971,7.06985814 12.4516129,6.70972698 12.4516129,6.23762045 L12.4516129,6.18713885 C12.4516129,5.97360059 12.5574298,5.73738377 12.7697138,5.47887001 C12.9149209,5.3329313 13.2110782,5.28239519 13.658511,5.32677102 C13.7026149,5.32677102 13.7251545,5.35528277 13.7251545,5.41132497 C13.7251545,5.55748174 13.7976496,5.68090544 13.9432359,5.7824138 C14.1779512,5.95097655 14.2952005,6.19313558 14.2952005,6.50774607 C14.2952005,6.90129539 14.0436347,7.16547879 13.5412075,7.30029628 C13.9316952,7.28884797 14.2058006,7.20489369 14.3623858,7.04723409 C14.4851616,6.9238104 14.5468204,6.72128433 14.5468204,6.44014652 C14.5468204,6.36175285 14.538043,6.26057158 14.5216259,6.13654821 C14.504667,6.01301549 14.4964314,5.92300996 14.4964314,5.86653162 C14.4964314,5.82204676 14.5074303,5.7879744 14.5297532,5.76540488 L14.5968302,5.73198671 C14.7419288,5.73198671 14.9095129,5.63647509 15.0999075,5.44479766 C15.1107981,5.43383999 15.1332293,5.42833389 15.1663885,5.42833389 C15.3679987,5.42833389 15.5353119,5.54630601 15.6695742,5.78235928 C15.7699188,5.96253389 15.8369958,6.17607215 15.870751,6.42319211 L15.870751,6.44020103 L15.8709677,6.44020103 Z" id="Shape"></path>
            </g>
            <g id="357_hud_icon-3" transform="translate(35.779620, 65.567930) rotate(-53.000000) translate(-35.779620, -65.567930) translate(24.392523, 59.641390)" fill="#FFFFFF" sketch:type="MSShapeGroup">
                <path d="M22.7701456,10.7439643 C22.7809934,10.7888042 22.7701456,10.8222303 22.7363071,10.8446231 C22.3244695,11.2595415 21.5233534,11.5397229 20.332581,11.685439 C19.7200326,11.7636506 19.135872,11.7975659 18.5793434,11.7861521 C18.5126377,11.7861521 18.4795008,11.752726 18.4795008,11.685439 C18.4234269,11.1922545 18.2620596,10.7493994 17.9951288,10.3569824 C17.9728936,10.3346984 17.966903,10.3065987 17.9782365,10.2727378 C18.0451581,10.1385442 18.078349,9.97608793 18.078349,9.78564068 C18.078349,9.47154403 17.9836874,9.16940468 17.7945799,8.8775921 C17.761389,8.84362248 17.7553445,8.81025073 17.7776337,8.77638982 C17.8668984,8.55246211 17.9114229,8.32869746 17.9114229,8.10433495 C17.9114229,7.85736226 17.855457,7.63903275 17.7446586,7.4486942 C17.4994773,7.00040398 16.9596792,6.71418959 16.1250484,6.590975 L16.0918574,6.590975 C16.047279,6.96094487 15.9521856,7.2073197 15.8076566,7.33042558 C15.3739076,7.77920497 14.8059376,8.00291527 14.104988,8.00291527 C13.4260578,8.00291527 12.8973233,7.78464011 12.5191084,7.34727451 L12.4685934,7.28004185 C12.3793286,7.19095993 12.3022609,7.04480906 12.2347996,6.84332848 C12.1684717,6.64141308 12.134849,6.46781476 12.134849,6.32177259 C12.134849,6.04208037 12.0679274,5.83407762 11.9347858,5.69999275 C11.8674325,5.64352166 11.7064969,5.60476913 11.4500361,5.58226765 L10.4489648,5.58226765 C10.3924592,5.58226765 10.3652588,5.55433104 10.3652588,5.49807736 L9.86404857,3.59817036 L0.44818188,3.59817036 C0.392647761,3.59817036 0.359025062,3.57572324 0.34812332,3.53082899 C0.314392684,3.32885925 0.281309676,3.18330624 0.248172698,3.09373516 C0.214334124,3.00378362 0.186216265,2.83578349 0.164250875,2.5890282 C0.0975451683,2.34270773 0.064516129,2.12970465 0.064516129,1.95018203 C0.064516129,1.75968043 0.114383502,1.53591578 0.214280155,1.277638 C0.23651539,1.23317856 0.269706337,1.21029663 0.314338715,1.21029663 L0.381260298,1.21029663 L0.381260298,0.89109095 C0.381260298,0.834619861 0.408892435,0.806737601 0.464858307,0.806737601 L0.548132502,0.806737601 L0.548132502,0.773311499 C0.548132502,0.705970134 0.581755201,0.672109221 0.648083124,0.672109221 L0.698706064,0.672109221 C0.698706064,0.560417126 0.734433554,0.470574287 0.806967914,0.403395976 C0.879718151,0.336054611 0.970979761,0.302737212 1.08280357,0.302737212 L2.7687957,0.672109221 L9.81428914,0.672109221 L9.89799508,0.63868312 L9.9479704,0.604822207 C9.95892611,0.593843228 9.97517078,0.588299386 9.99805364,0.588299386 L14.1549093,0.588299386 L14.138125,0.554329771 L15.106599,0.386329641 L15.190305,0.0502750307 C15.190305,0.0163054154 15.2071973,0 15.2403882,0 L15.4907505,0 C15.5348971,0 15.55778,0.0163054154 15.55778,0.0502750307 L15.6076474,0.68895815 L15.6076474,0.722873414 L15.5407258,0.823640881 L15.7077059,0.823640881 C15.7523923,0.823640881 15.7799165,0.848859924 15.7914119,0.899080603 C15.8023676,0.949518688 15.8244949,1.01408813 15.8581176,1.09251718 C15.8691812,1.07055922 15.8858577,1.05903673 15.9083088,1.05903673 L16.0581807,1.05903673 C16.1142546,1.05903673 16.1419946,1.08697334 16.1419946,1.14328137 C16.1419946,1.30030252 16.2142052,1.37862287 16.3588421,1.37862287 C16.4925234,1.37862287 16.6261507,1.31133585 16.759832,1.17665312 C16.9822383,0.974683379 17.2549437,0.873970263 17.5778943,0.873970263 C17.7555064,0.873970263 17.8722953,0.907342014 17.9283691,0.974683379 C17.9729475,1.01957762 17.9891922,1.07594001 17.9783444,1.14333573 C17.966957,1.19920895 17.9311216,1.24116822 17.8696508,1.26921353 C17.8088278,1.29709579 17.7114137,1.32774997 17.5778943,1.36182829 C17.3104778,1.42906095 17.1382627,1.49640232 17.0597918,1.56368933 C16.8261059,1.79903083 16.6984692,2.03986181 16.6762339,2.28607359 C16.7984198,2.37645994 16.9430028,2.46026977 17.1104147,2.53842706 C17.4218159,2.69566562 17.900683,2.79078054 18.5462604,2.82475016 L18.562613,2.82475016 L18.5793974,2.82475016 L18.5793974,2.84127298 L19.0300387,2.97579266 C19.0522739,2.99829413 19.0745092,3.02063255 19.0967444,3.04307967 C19.2191461,3.35663281 19.3642688,3.63148776 19.531141,3.8667749 C19.7424837,4.15858749 20.0876156,4.685035 20.5663748,5.44747622 C21.1446528,6.3555248 21.5289662,7.01116555 21.7179657,7.41456153 C22.1076759,8.30005428 22.4581508,9.41012696 22.7701456,10.7439643 L22.7701456,10.7439643 Z M15.8709677,6.44020103 C15.8709677,6.76625983 15.7478127,7.05835531 15.5021527,7.31686907 C15.2005772,7.62041286 14.7591586,7.77251185 14.1780596,7.77251185 C13.5630969,7.77251185 13.110842,7.62041286 12.8205363,7.31686907 C12.5744971,7.06985814 12.4516129,6.70972698 12.4516129,6.23762045 L12.4516129,6.18713885 C12.4516129,5.97360059 12.5574298,5.73738377 12.7697138,5.47887001 C12.9149209,5.3329313 13.2110782,5.28239519 13.658511,5.32677102 C13.7026149,5.32677102 13.7251545,5.35528277 13.7251545,5.41132497 C13.7251545,5.55748174 13.7976496,5.68090544 13.9432359,5.7824138 C14.1779512,5.95097655 14.2952005,6.19313558 14.2952005,6.50774607 C14.2952005,6.90129539 14.0436347,7.16547879 13.5412075,7.30029628 C13.9316952,7.28884797 14.2058006,7.20489369 14.3623858,7.04723409 C14.4851616,6.9238104 14.5468204,6.72128433 14.5468204,6.44014652 C14.5468204,6.36175285 14.538043,6.26057158 14.5216259,6.13654821 C14.504667,6.01301549 14.4964314,5.92300996 14.4964314,5.86653162 C14.4964314,5.82204676 14.5074303,5.7879744 14.5297532,5.76540488 L14.5968302,5.73198671 C14.7419288,5.73198671 14.9095129,5.63647509 15.0999075,5.44479766 C15.1107981,5.43383999 15.1332293,5.42833389 15.1663885,5.42833389 C15.3679987,5.42833389 15.5353119,5.54630601 15.6695742,5.78235928 C15.7699188,5.96253389 15.8369958,6.17607215 15.870751,6.42319211 L15.870751,6.44020103 L15.8709677,6.44020103 Z" id="Shape"></path>
            </g>
        </g>
    </g>
</svg>