<?xml version="1.0" encoding="utf-8"?>
<!-- Generator: Adobe Illustrator 17.0.0, SVG Export Plug-In . SVG Version: 6.00 Build 0)  -->
<!DOCTYPE svg PUBLIC "-//W3C//DTD SVG 1.1//EN" "http://www.w3.org/Graphics/SVG/1.1/DTD/svg11.dtd">
<svg version="1.1" id="Layer_1" xmlns="http://www.w3.org/2000/svg" xmlns:xlink="http://www.w3.org/1999/xlink" x="0px" y="0px"
	 width="370px" height="370px" viewBox="0 0 370 370" enable-background="new 0 0 370 370" xml:space="preserve">
<g>
	<path fill="#975B8E" d="M186.76,203.27c3.67-0.81,7.34-2.18,11.16-1.76c4.61,0.47,9.18,1.53,13.85,1.24
		c1.51,0.01,3.03,0.03,4.56,0.07c-0.89,0.6-1.78,1.22-2.67,1.83c-1.24,0.08-2.49,0.17-3.73,0.31c-4.92,0.95-9.84,1.97-14.66,3.36
		c-3.01,0.25-6.03,0.26-9.05,0.27C186.4,206.81,186.58,205.04,186.76,203.27z"/>
</g>
<g>
	<path fill="#2D2D6D" d="M177.35,44.45c4.64-2.53,8.77-5.87,13.3-8.59c-0.2,2.67-0.41,5.34-0.61,8.01
		c6.16-0.5,12.29-1.24,18.44-1.85c-0.49,2.18-0.98,4.37-1.46,6.55c5.69,1.71,11.46,3.16,17.11,5.01c2.73,4.47,8.19,5.87,12.22,8.88
		c-1.54,0.08-3.07,0.16-4.6,0.24c4.37,6.07,8.73,12.14,13.06,18.23c-0.35,0.41-1.06,1.23-1.41,1.64c-1.41,1.66-2.72,3.41-3.83,5.29
		l-0.24,0.61c-3.23-2-6.39-4.09-9.45-6.33c2.01-1.72,3.89-3.67,5.43-5.76c-4.87-0.12-9.74,0.12-14.6-0.22
		c0.81-1.96,1.36-4.11,2.74-5.77c2.33-2.02,5.16-3.33,7.73-5c-5.95-0.15-12.08-0.71-17.85,1.09c-4.39,1.35-8.74,2.85-13.26,3.7
		c2.02-3.22,3.72-6.86,6.78-9.24c3.69-2.05,7.78-3.28,11.4-5.48c-3.98-0.35-8.05-0.5-11.88,0.83c-2.6,0.14-5.19,0.11-7.79,0.1
		c-0.53,0.01-1.6,0.04-2.14,0.05c-4.84,4.51-9.01,9.71-14.11,13.95c1.57-4.93,3.51-9.72,5.56-14.46c1.74-4.54,6.78-6.12,10.27-9.02
		c-2.58,0.18-5.2,0.53-7.4,2.01l-0.93,0.3c-3.39,0.15-7.53-0.32-10,2.55c-3.72,4.08-6.62,8.87-10.86,12.48
		c1.03-5.94,3.69-11.43,4.91-17.33c-1.74,1.55-3.35,3.27-4.29,5.42c-2.98,4.22-6.65,7.88-10.03,11.76c-1.44,0.91-2.9,1.75-4.37,2.61
		c0.02-3.56-0.09-7.13-0.32-10.68c-6.5,9.33-13.46,18.33-20.05,27.6c-2.1,2.96-4.62,5.7-6.05,9.07c-0.98,4.05-0.23,8.26-0.21,12.37
		c1.08-0.96,2.15-1.93,3.22-2.88c1.25,10.92-1.01,22.04,1.14,32.87c-0.37,0.92-0.71,1.87-0.69,2.88c-0.19,8.88,0.3,17.78-0.24,26.64
		c-3.13-0.83-2.35-5.05-3.38-7.53c-1.32-5.19-2.27-10.47-3.85-15.58c-0.53-0.03-1.61-0.1-2.15-0.14
		c-0.04-10.77-0.34-21.54-0.05-32.3c1.3-8.48,4.14-16.64,5.58-25.1c0.51,0.66,1.02,1.31,1.53,1.97c3.02-7.94,6.82-15.54,10.05-23.39
		c0.16,1.76,0.32,3.52,0.49,5.28c5.18-7.41,10.47-14.75,15.64-22.18c0.15,0.97,0.43,2.89,0.57,3.86c3.07-1.94,6.04-4.02,9.05-6.05
		C169.11,40.52,173.38,44.86,177.35,44.45z"/>
	<path fill="#2D2D6D" d="M145.31,152.65c5.47-2.59,11.54-4.92,17.68-3.56c3.37,1.14,6.51,2.87,9.68,4.46
		c0.13,0.23,0.39,0.71,0.52,0.95c-1.43,0.02-2.86,0.04-4.28,0.04c-0.89-1.91-2.72-2.95-4.47-3.93c-3.23-0.88-6.6-0.62-9.87-0.14
		c-1.54,0.73-3.09,1.45-4.64,2.16C148.39,152.75,146.84,152.69,145.31,152.65z"/>
</g>
<g>
	<g>
		<path fill="#474479" d="M169.59,52.34c0.94-2.15,2.55-3.87,4.29-5.42c-1.22,5.9-3.88,11.39-4.91,17.33
			c4.24-3.61,7.14-8.4,10.86-12.48c2.47-2.87,6.61-2.4,10-2.55c-3.3,1.52-7.73,1.34-9.91,4.66c-3.61,4.74-7.31,9.4-10.93,14.13
			c2.47-0.42,5.23-0.2,7.46-1.45c2.7-4.2,4.02-9.15,6.74-13.34c2.43-1.58,5.26-2.5,7.57-4.3c2.2-1.48,4.82-1.83,7.4-2.01
			c-3.49,2.9-8.53,4.48-10.27,9.02c-2.05,4.74-3.99,9.53-5.56,14.46c5.1-4.24,9.27-9.44,14.11-13.95c0.54-0.01,1.61-0.04,2.14-0.05
			c-4.59,5.32-9.26,10.58-13.73,16.01c2.37-0.73,4.92-1.17,7.04-2.54c2.81-3.57,4.7-7.77,7.37-11.46c3.98-0.39,7.96-0.9,11.87-1.82
			c-1.59-0.11-3.18-0.21-4.76-0.29c3.83-1.33,7.9-1.18,11.88-0.83c-3.62,2.2-7.71,3.43-11.4,5.48c-3.06,2.38-4.76,6.02-6.78,9.24
			c4.52-0.85,8.87-2.35,13.26-3.7c5.77-1.8,11.9-1.24,17.85-1.09c-2.57,1.67-5.4,2.98-7.73,5c-1.38,1.66-1.93,3.81-2.74,5.77
			c4.86,0.34,9.73,0.1,14.6,0.22c-1.54,2.09-3.42,4.04-5.43,5.76c3.06,2.24,6.22,4.33,9.45,6.33c-1.38,4.41-3.27,8.62-5.12,12.85
			c-5.18-3.88-9.84-8.49-15.27-11.99c-6.1-0.18-12.4-0.81-18.32,0.98c-4.49,0.95-9.11,0.26-13.65,0.45
			c-3.68-0.04-7.36,0.08-11.04,0.03c-3.07,0.06-5.86-1.54-8.91-1.6c-4.39-0.17-8.79,0.09-13.19,0.14c-6.3-2.01-12.66-3.83-19.01-5.7
			c6.59-9.27,13.55-18.27,20.05-27.6c0.23,3.55,0.34,7.12,0.32,10.68c1.47-0.86,2.93-1.7,4.37-2.61c-1.24,1.46-2.43,2.96-3.67,4.41
			c0.56,1.43,1.17,2.85,1.89,4.2c3.42-5.2,6.61-10.55,10.07-15.73C168.85,55.61,169.39,54.01,169.59,52.34z M143.15,75.68
			c3.1-2.12,6.18-4.32,8.96-6.85c0.98-2.03,0.17-4.43,0.22-6.59C149.06,66.56,145.71,70.89,143.15,75.68z M194.85,75.68
			c-13.99,1.43-28.04,2.29-42.02,3.77c4.85,2.22,9.85,4.08,14.79,6.06c1.43,0.7,2.95-0.07,4.36-0.44
			c10.39-3.37,20.87-6.48,31.28-9.8C200.44,75.24,197.64,75.37,194.85,75.68z M222.28,78.76c2.21,2.96,5.84,0.94,8.05-0.88
			C227.62,77.79,224.88,77.94,222.28,78.76z M229.21,83.75c0.24,1.82,0.5,3.65,0.78,5.47c2.48,0.03,4.96-0.02,7.44-0.15
			C234.87,87.03,232.14,85.21,229.21,83.75z"/>
	</g>
</g>
<g>
	<path fill="#017BB3" d="M189.83,49.22l0.93-0.3c-2.31,1.8-5.14,2.72-7.57,4.3c-2.72,4.19-4.04,9.14-6.74,13.34
		c-2.23,1.25-4.99,1.03-7.46,1.45c3.62-4.73,7.32-9.39,10.93-14.13C182.1,50.56,186.53,50.74,189.83,49.22z"/>
</g>
<g>
	<path fill="#0C75AA" d="M169.59,52.34c-0.2,1.67-0.74,3.27-1.74,4.64c-3.46,5.18-6.65,10.53-10.07,15.73
		c-0.72-1.35-1.33-2.77-1.89-4.2c1.24-1.45,2.43-2.95,3.67-4.41C162.94,60.22,166.61,56.56,169.59,52.34z"/>
</g>
<g>
	<path fill="#007BAF" d="M198.58,56.39c2.6,0.01,5.19,0.04,7.79-0.1c1.58,0.08,3.17,0.18,4.76,0.29c-3.91,0.92-7.89,1.43-11.87,1.82
		c-2.67,3.69-4.56,7.89-7.37,11.46c-2.12,1.37-4.67,1.81-7.04,2.54C189.32,66.97,193.99,61.71,198.58,56.39z"/>
</g>
<g>
	<path fill="#0779AD" d="M143.15,75.68c2.56-4.79,5.91-9.12,9.18-13.44c-0.05,2.16,0.76,4.56-0.22,6.59
		C149.33,71.36,146.25,73.56,143.15,75.68z"/>
</g>
<g>
	<path fill="#007CB2" d="M194.85,75.68c2.79-0.31,5.59-0.44,8.41-0.41c-10.41,3.32-20.89,6.43-31.28,9.8
		c-1.41,0.37-2.93,1.14-4.36,0.44c-4.94-1.98-9.94-3.84-14.79-6.06C166.81,77.97,180.86,77.11,194.85,75.68z"/>
</g>
<g>
	<path fill="#136FA3" d="M222.28,78.76c2.6-0.82,5.34-0.97,8.05-0.88C228.12,79.7,224.49,81.72,222.28,78.76z"/>
</g>
<g>
	<path fill="#21225A" d="M239.57,87.86c1.11-1.88,2.42-3.63,3.83-5.29c2.53,6.88,4.82,13.86,7.39,20.73
		c0.77,2.17,1.65,4.35,1.74,6.67c0.22,10.34-0.27,20.7,0.23,31.03c-1.63,2.3-3.72,4.3-5.05,6.81c-1.23,3.16-1.81,6.54-2.78,9.79
		c-0.71,2.52-1.43,5.04-2.04,7.59c-0.3-0.53-0.9-1.59-1.2-2.11c-0.32-9.16,0.09-18.34-0.21-27.5c0.08-4.68,0.09-9.36,0.27-14.03
		c0.7,0.27,1.4,0.55,2.1,0.82c-0.05-3.17-0.02-6.33,0.09-9.49c1.29,1.35,2.58,2.71,3.87,4.07c-0.03-4.74,0.81-9.66-0.59-14.27
		C244.88,97.63,241.84,92.94,239.57,87.86z"/>
	<path fill="#21225A" d="M200.84,153.57c2.06-1.18,4.22-2.15,6.36-3.17l-0.52,1.38c-0.74,0.9-1.48,1.8-2.17,2.74
		c-1.14-0.06-2.27-0.12-3.4-0.2l-1.2-0.24L200.84,153.57z"/>
</g>
<g>
	<path fill="#3A3B73" d="M128.77,92.7c1.43-3.37,3.95-6.11,6.05-9.07c6.35,1.87,12.71,3.69,19.01,5.7
		c-2.12,1.88-4.25,3.75-6.42,5.58c-2.73,2.07-5.35,4.28-8.1,6.33c-0.12,8.6,0.26,17.22-0.15,25.81c-1.64,2.98-4.11,5.39-6.24,8.01
		c-2.15-10.83,0.11-21.95-1.14-32.87c-1.07,0.95-2.14,1.92-3.22,2.88C128.54,100.96,127.79,96.75,128.77,92.7z"/>
</g>
<g>
	<path fill="#0A76AB" d="M229.21,83.75c2.93,1.46,5.66,3.28,8.22,5.32c-2.48,0.13-4.96,0.18-7.44,0.15
		C229.71,87.4,229.45,85.57,229.21,83.75z"/>
</g>
<g>
	<path fill="#313072" d="M239.33,88.47l0.24-0.61c2.27,5.08,5.31,9.77,7.65,14.82c1.4,4.61,0.56,9.53,0.59,14.27
		c-1.29-1.36-2.58-2.72-3.87-4.07c-0.11,3.16-0.14,6.32-0.09,9.49c-0.7-0.27-1.4-0.55-2.1-0.82c-0.18,4.67-0.19,9.35-0.27,14.03
		c-2.48-2.78-5.28-5.37-7.16-8.6c-0.36-8.54-0.09-17.11-0.11-25.66C236.06,97.09,237.95,92.88,239.33,88.47z"/>
</g>
<g>
	<path fill="#CE949E" d="M153.83,89.33c4.4-0.05,8.8-0.31,13.19-0.14c3.05,0.06,5.84,1.66,8.91,1.6c3.68,0.05,7.36-0.07,11.04-0.03
		c-0.06,0.84-0.18,2.53-0.23,3.37c-3.61-0.01-7.21,0.14-10.81,0.08c-3.77,0.07-7.13-2.15-10.9-2.11c-3.33-0.06-6.68-0.19-10,0.15
		c-2.18,0.54-4.05,1.92-6.21,2.55l-1.41,0.11C149.58,93.08,151.71,91.21,153.83,89.33z"/>
</g>
<g>
	<path fill="#BB7F9B" d="M200.62,90.31c5.92-1.79,12.22-1.16,18.32-0.98c5.43,3.5,10.09,8.11,15.27,11.99
		c0.02,8.55-0.25,17.12,0.11,25.66c1.88,3.23,4.68,5.82,7.16,8.6c0.3,9.16-0.11,18.34,0.21,27.5c0.3,0.52,0.9,1.58,1.2,2.11
		c-0.07,0.38-0.2,1.15-0.27,1.54c-1.67,7.35-3.27,14.73-4.77,22.12c-1.13,4.94-2.16,9.91-3.18,14.88
		c-0.96,5.97-5.81,10.04-8.9,14.93c-3.88,4.95-7.4,10.22-11.91,14.64c2.99-10.29,7.15-20.19,10.56-30.34
		c-3.73-5.1-8.43-9.49-11.44-15.09c5.3,3.79,9.28,9.04,14.27,13.19c1.42-2.31,2.96-4.85,2.33-7.7c-1.14-7.36-2.65-14.66-3.92-22
		c2.79-2.75,5.74-5.33,8.52-8.1c-1.06-1.11-2.11-2.21-3.17-3.32c2.09,0.54,4.17,1.08,6.26,1.62c0.61-2.66,0.73-5.38,0.5-8.09
		c-1.16-0.36-2.32-0.71-3.47-1.06c1.56-0.99,2.98-2.19,4.1-3.68c-1.82-0.03-3.63-0.01-5.44,0.02c1.68-0.77,3.36-1.53,5.03-2.3
		c-2.07-3.08-4.48-5.89-6.82-8.75c-1.3-1.62-2.61-3.24-4.09-4.72c-0.41-0.01-1.23-0.05-1.63-0.07c0.36-11.32,0.1-22.65,0.22-33.98
		c0.63-3.97-3.69-5.73-6.73-6.77c-5.58-0.65-11.4-0.69-16.8,1.05c-4.99,1.57-10.27,0.82-15.4,0.92c0.05-0.84,0.17-2.53,0.23-3.37
		C191.51,90.57,196.13,91.26,200.62,90.31z"/>
</g>
<g>
	<path fill="#FFCCB1" d="M148.82,94.8c2.16-0.63,4.03-2.01,6.21-2.55c3.32-0.34,6.67-0.21,10-0.15c3.77-0.04,7.13,2.18,10.9,2.11
		c3.6,0.06,7.2-0.09,10.81-0.08c-0.06,19.42-0.04,38.83-0.02,58.24c-1.84-0.7-4.1-0.98-5.28-2.75c-2.55-3.34-4.71-6.96-7.18-10.36
		c-1.47-2.11-2.96-4.2-4.44-6.3c-7.31-0.06-14.61-0.09-21.92-0.02c-0.18-9.97-0.02-19.95-0.12-29.92
		C147.69,100.24,148.15,97.49,148.82,94.8z"/>
	<path fill="#FFCCB1" d="M165.63,170.58c5.29-3.87,8.86-9.56,13.21-14.39c0.06,0.47,0.17,1.39,0.23,1.86
		c-1.8,5.13-3.76,10.2-5.56,15.32c-0.66,2.18-2.09,3.98-3.76,5.49c-0.39,0.36-1.16,1.1-1.55,1.46c0.08,1.19,0.15,2.37,0.28,3.55
		c1.73,5.11,8.55,3.4,11.62,7.09c1.92,2.12,3.89,4.21,6.24,5.87c0.15,1.76,0.29,3.52,0.39,5.29l0.03,1.15
		c-2.92-0.64-5.79-1.62-8.78-1.86c-5.72-0.04-11.33,2.06-17.06,1.2c-2.2-0.29-4.39-0.61-6.59-0.89c2.64,5.41,6.39,10.14,9.89,15.01
		c2.89,4.24,7.65,6.64,12.16,8.78c3.45,1.6,8.32-0.34,10.68,3.28c-0.61,5.8-0.31,11.63-0.29,17.45c-3.66,0.52-7.99-0.21-10.88,2.59
		c-1.33,1.1-2.56,2.32-3.81,3.52c-5.25-7.39-11.35-14.17-16.11-21.9c-2.12-9.38-5.71-18.34-8.47-27.53
		c5.23-5.9,10.75-11.54,15.64-17.72c-6.47,4.97-12.09,10.92-18.31,16.18c-1.32-2.46-3.32-5.06-2.39-8.03
		c1.6-6.81,3.25-13.63,5.02-20.4c0.24-0.43,0.71-1.28,0.94-1.71C154.12,170.42,159.97,171.65,165.63,170.58z"/>
</g>
<g>
	<path fill="#DDA5A4" d="M202.14,93.21c5.4-1.74,11.22-1.7,16.8-1.05c3.04,1.04,7.36,2.8,6.73,6.77
		c-0.12,11.33,0.14,22.66-0.22,33.98c-7.2-0.13-14.4,0.25-21.59-0.04c-1.53,1.99-3.03,4.02-4.47,6.08
		c-2.81,4.23-5.92,8.28-8.25,12.81c0.1,8.19,1.84,16.26,2.61,24.4c-2.14-0.2-4.28-0.39-6.42-0.56c-1.13-7.7-0.13-15.49-0.61-23.23
		c-0.02-19.41-0.04-38.82,0.02-58.24C191.87,94.03,197.15,94.78,202.14,93.21z"/>
	<path fill="#DDA5A4" d="M193.58,156.13c4.3,2.36,6.65,6.89,9.83,10.43c1.6,1.65,2.97,4.25,5.56,4.26
		c5.56,0.31,11.16-0.33,16.69,0.54c1.27,7.34,2.78,14.64,3.92,22c0.63,2.85-0.91,5.39-2.33,7.7c-4.99-4.15-8.97-9.4-14.27-13.19
		c3.01,5.6,7.71,9.99,11.44,15.09c-3.41,10.15-7.57,20.05-10.56,30.34c-3.53,6.94-8.89,12.68-13.2,19.11
		c-1.83-1.92-3.53-4.03-5.77-5.47c-2.67-0.52-5.42-0.19-8.12-0.11v-0.59c-0.02-5.82-0.32-11.65,0.29-17.45
		c3.19-0.3,6.36-1.05,9.16-2.66c4.49-2.63,9.67-4.7,12.78-9.09c3.57-4.95,7.31-9.82,10.14-15.25c-2.47,0.24-4.92,0.6-7.37,0.96
		c-4.67,0.29-9.24-0.77-13.85-1.24c-3.82-0.42-7.49,0.95-11.16,1.76l-0.03-1.15c1.53-0.61,3.1-1.14,4.66-1.68
		c-0.46-1.7-1.64-3.41-1.28-5.2c1.67-2.91,4.23-5.57,7.6-6.38c2.95-1.05,7.03-1.26,7.79-5.01c0.19-1.72,0.37-3.68-1.21-4.83
		c-1.55-1.62-3.13-3.3-3.89-5.45C198.11,167.77,195.94,161.91,193.58,156.13z"/>
</g>
<g>
	<path fill="#E0A5A7" d="M139.31,101.24c2.75-2.05,5.37-4.26,8.1-6.33l1.41-0.11c-0.67,2.69-1.13,5.44-1.04,8.22
		c0.1,9.97-0.06,19.95,0.12,29.92c-0.43,0.04-1.29,0.11-1.72,0.15c-1.36,1.49-2.62,3.07-3.9,4.64c-2.33,2.72-4.62,5.52-6.3,8.71
		c1.3,0.8,2.6,1.59,3.9,2.39c-1.34-0.07-2.67-0.14-4.01-0.21c0.04,0.88,0.09,1.75,0.13,2.63c0.97,0.13,1.94,0.25,2.91,0.36
		c-3.87,1.88-3.75,6.37-2.23,9.88c2.05-0.49,4.1-0.98,6.16-1.45c-1.23,1.01-2.46,2.01-3.69,3.02c0.23,0.41,0.68,1.23,0.9,1.64
		c1.32-0.83,2.62-1.68,3.94-2.5c0.98,0.36,1.97,0.73,2.96,1.09c-1.8,0.59-3.58,1.27-5.17,2.3c2.26,2.13,5.11,4.06,5.68,7.36
		c-1.77,6.77-3.42,13.59-5.02,20.4c-0.93,2.97,1.07,5.57,2.39,8.03c6.22-5.26,11.84-11.21,18.31-16.18
		c-4.89,6.18-10.41,11.82-15.64,17.72c2.76,9.19,6.35,18.15,8.47,27.53c-3.14-3.35-5.95-6.98-8.69-10.66
		c-2.84-4.11-6.39-7.73-8.88-12.06c-1.64-6.16-2.31-12.54-3.57-18.78c-1.41-7.8-2.83-15.59-4.22-23.39
		c0.35-0.25,1.04-0.73,1.38-0.98c0.54-8.86,0.05-17.76,0.24-26.64c-0.02-1.01,0.32-1.96,0.69-2.88c2.13-2.62,4.6-5.03,6.24-8.01
		C139.57,118.46,139.19,109.84,139.31,101.24z"/>
</g>
<g>
	<path fill="#205B8F" d="M146.18,133.09c0.43-0.04,1.29-0.11,1.72-0.15c7.31-0.07,14.61-0.04,21.92,0.02
		c1.48,2.1,2.97,4.19,4.44,6.3c-3-0.92-6.08-1.65-9.24-1.56c-7.58,0.05-15.16,0.04-22.74,0.03
		C143.56,136.16,144.82,134.58,146.18,133.09z"/>
</g>
<g>
	<path fill="#1C4682" d="M199.39,138.95c1.44-2.06,2.94-4.09,4.47-6.08c7.19,0.29,14.39-0.09,21.59,0.04
		c0.4,0.02,1.22,0.06,1.63,0.07c1.48,1.48,2.79,3.1,4.09,4.72C220.59,138.22,209.81,136.57,199.39,138.95z"/>
</g>
<g>
	<g>
		<path fill="#EFB7AA" d="M135.98,146.44c1.68-3.19,3.97-5.99,6.3-8.71c7.58,0.01,15.16,0.02,22.74-0.03
			c3.16-0.09,6.24,0.64,9.24,1.56c2.47,3.4,4.63,7.02,7.18,10.36c1.18,1.77,3.44,2.05,5.28,2.75c0.48,7.74-0.52,15.53,0.61,23.23
			c2.14,0.17,4.28,0.36,6.42,0.56c0.46,3.3,0.89,6.6,1.3,9.91c-2.72-0.03-5.43-0.06-8.14,0.02c-0.05-3.31-0.12-6.61-0.23-9.91
			c-2.33-0.15-4.65-0.31-6.98-0.46c1.03-7.97,2.18-15.95,2.85-23.96c-1.33,1.99-2.56,4.07-3.48,6.29c-0.06-0.47-0.17-1.39-0.23-1.86
			c-4.35,4.83-7.92,10.52-13.21,14.39c-5.66,1.07-11.51-0.16-17.23,0.66c-0.23,0.43-0.7,1.28-0.94,1.71
			c-0.57-3.3-3.42-5.23-5.68-7.36c1.59-1.03,3.37-1.71,5.17-2.3c-0.99-0.36-1.98-0.73-2.96-1.09c-1.32,0.82-2.62,1.67-3.94,2.5
			c-0.22-0.41-0.67-1.23-0.9-1.64c1.23-1.01,2.46-2.01,3.69-3.02c-2.06,0.47-4.11,0.96-6.16,1.45c-1.52-3.51-1.64-8,2.23-9.88
			c-0.97-0.11-1.94-0.23-2.91-0.36c-0.04-0.88-0.09-1.75-0.13-2.63c1.34,0.07,2.67,0.14,4.01,0.21
			C138.58,148.03,137.28,147.24,135.98,146.44z M141.32,151.26c-0.15,0.47-0.44,1.4-0.59,1.87c-0.03,2.45,2.21,3.76,3.8,5.23
			c2.61,2.1,4.97,4.53,7.79,6.35c4.36,0.54,9.08,0.86,13.34-0.1c2.81-3.08,6.26-6,7.53-10.11c-0.13-0.24-0.39-0.72-0.52-0.95
			c-0.03-0.5-0.08-1.49-0.11-1.98c-2.76-1.99-5.66-3.81-8.66-5.42c-3.9-0.58-7.97-0.42-11.9-0.11
			C148.35,147.57,144.74,149.28,141.32,151.26z"/>
	</g>
	<path fill="#EFB7AA" d="M175.89,248.83c2.89-2.8,7.22-2.07,10.88-2.59v0.59c0.01,2.71-0.04,5.43-0.1,8.15
		c-3.5-0.47-7-1.01-10.46-1.75c-1.38-0.29-2.75-0.58-4.13-0.88C173.33,251.15,174.56,249.93,175.89,248.83z"/>
</g>
<g>
	<g>
		<path fill="#CB919D" d="M191.14,151.76c2.33-4.53,5.44-8.58,8.25-12.81c10.42-2.38,21.2-0.73,31.78-1.25
			c2.34,2.86,4.75,5.67,6.82,8.75c-1.67,0.77-3.35,1.53-5.03,2.3c1.81-0.03,3.62-0.05,5.44-0.02c-1.12,1.49-2.54,2.69-4.1,3.68
			c1.15,0.35,2.31,0.7,3.47,1.06c0.23,2.71,0.11,5.43-0.5,8.09c-2.09-0.54-4.17-1.08-6.26-1.62c1.06,1.11,2.11,2.21,3.17,3.32
			c-2.78,2.77-5.73,5.35-8.52,8.1c-5.53-0.87-11.13-0.23-16.69-0.54c-2.59-0.01-3.96-2.61-5.56-4.26
			c-3.18-3.54-5.53-8.07-9.83-10.43C192.81,154.65,191.97,153.21,191.14,151.76z M202.45,150.48c-1.24,0.62-1.78,1.65-1.61,3.09
			l-0.93,0.51l1.2,0.24c-0.35,4.62,4.52,7.2,6.83,10.71c4.32,0.05,8.66,0.36,12.96-0.19c2.28-1.26,4.07-3.21,6.1-4.81
			c2.6-2.29,6.37-4.38,5.88-8.42c-3.89-1.94-7.63-4.32-11.81-5.59c-3.66-0.31-7.36-0.36-11.02-0.06
			C207.34,147.15,204.94,148.91,202.45,150.48z"/>
	</g>
	<path fill="#CB919D" d="M154.33,201.72c2.2,0.28,4.39,0.6,6.59,0.89c-0.63,0.15-1.88,0.46-2.51,0.61c1.75,3.21,2.69,7.27,6.09,9.21
		c3.11,1.96,6.18,4.02,9.5,5.6c3.64,1.37,7.58,1.68,11.42,2.13c0.93,1.86,1.62,3.83,2.04,5.88c2.92,0.13,5.84,0.23,8.76,0.09
		c-2.8,1.61-5.97,2.36-9.16,2.66c-2.36-3.62-7.23-1.68-10.68-3.28c-4.51-2.14-9.27-4.54-12.16-8.78
		C160.72,211.86,156.97,207.13,154.33,201.72z"/>
</g>
<g>
	<g>
		<path fill="#BA8099" d="M117.66,143.64c0.64-2.25,3.02-2.31,4.95-2.31c0.54,0.04,1.62,0.11,2.15,0.14
			c1.58,5.11,2.53,10.39,3.85,15.58c-1.42,0.49-2.83,0.99-4.25,1.49c-0.96,2.45-1.77,4.95-2.46,7.49c2.13,2.44,4.29,5.85,8.03,5.29
			c0.19-1.93,0.33-3.86,0.68-5.76c1.39,7.8,2.81,15.59,4.22,23.39c-5.26,0.32-10.81-3.46-11.17-8.96
			c-0.72-4.82-3.52-9.06-3.88-13.95C119.39,158.54,114.54,151.14,117.66,143.64z M119.07,146.09c-0.53,4.36,0.16,8.72,1.43,12.89
			c3.12-2.32,3.06-7.05,3.22-10.62C122.17,147.6,120.62,146.84,119.07,146.09z"/>
	</g>
	<path fill="#BA8099" d="M191.14,151.76c0.83,1.45,1.67,2.89,2.44,4.37c2.36,5.78,4.53,11.64,6.82,17.44
		c0.76,2.15,2.34,3.83,3.89,5.45c-3.55-0.83-7.07-1.77-10.54-2.86C192.98,168.02,191.24,159.95,191.14,151.76z"/>
	<path fill="#BA8099" d="M211.77,202.75c2.45-0.36,4.9-0.72,7.37-0.96c-2.83,5.43-6.57,10.3-10.14,15.25
		c-3.11,4.39-8.29,6.46-12.78,9.09c-2.92,0.14-5.84,0.04-8.76-0.09c-0.42-2.05-1.11-4.02-2.04-5.88c4.56,0.23,9.21,0.07,13.7-0.82
		c3.42-1.37,6.16-3.99,9.14-6.1c2.94-1.98,3.99-5.53,5.4-8.59c0.89-0.61,1.78-1.23,2.67-1.83
		C214.8,202.78,213.28,202.76,211.77,202.75z"/>
</g>
<g>
	<g>
		<path fill="#A96D93" d="M252.76,141c2.15,0.61,4.7,1.3,5.49,3.69c1.48,4.43,0.29,9.16-1.06,13.47c-1.39,4.31-0.97,9-2.65,13.24
			c-1.25,3.09-2.18,6.29-2.75,9.58c-0.34,3.48-3.5,5.72-6.24,7.41c-2.52,0.61-5.14,0.38-7.7,0.46c1.5-7.39,3.1-14.77,4.77-22.12
			c0.28,1.72,0.62,3.44,0.94,5.16c3.58-0.05,5.99-3.11,7.51-6.02c0.06-2.6-0.54-5.49-2.29-7.49c-1.27-0.32-2.56-0.58-3.85-0.78
			c0.97-3.25,1.55-6.63,2.78-9.79C249.04,145.3,251.13,143.3,252.76,141z M251.85,150.04c-0.02,3.2,1.32,6.17,2.55,9.05
			c1.79-4.05,3.34-8.79,1.64-13.13C254.46,147.09,252.47,148.05,251.85,150.04z"/>
	</g>
	<path fill="#A96D93" d="M213.86,233.3c4.51-4.42,8.03-9.69,11.91-14.64c0.21,2.66,0.39,5.33,0.56,7.99
		c-7.93,10.95-16.37,21.52-24.26,32.49c-1.08,1.78-2.99,2.55-4.93,3.02c-0.22-2.94-0.31-5.89-0.3-8.83c1.27-0.29,2.55-0.6,3.82-0.92
		C204.97,245.98,210.33,240.24,213.86,233.3z"/>
</g>
<g>
	<path fill="#A66D91" d="M119.07,146.09c1.55,0.75,3.1,1.51,4.65,2.27c-0.16,3.57-0.1,8.3-3.22,10.62
		C119.23,154.81,118.54,150.45,119.07,146.09z"/>
</g>
<g>
	<path fill="#AA6E91" d="M141.32,151.26c3.42-1.98,7.03-3.69,10.68-5.22c3.93-0.31,8-0.47,11.9,0.11c3,1.61,5.9,3.43,8.66,5.42
		c0.03,0.49,0.08,1.48,0.11,1.98c-3.17-1.59-6.31-3.32-9.68-4.46c-6.14-1.36-12.21,0.97-17.68,3.56c-1.52,0.2-3.05,0.33-4.58,0.48
		C140.88,152.66,141.17,151.73,141.32,151.26z"/>
</g>
<g>
	<path fill="#995A8E" d="M202.45,150.48c2.49-1.57,4.89-3.33,7.6-4.52c3.66-0.3,7.36-0.25,11.02,0.06
		c4.18,1.27,7.92,3.65,11.81,5.59c-4.37,1.41-8.42,3.57-12.16,6.21c-1.86,1.45-4.19,1.35-6.41,1.25c-0.18-0.78-0.54-2.34-0.72-3.12
		c0.79-0.01,2.36-0.02,3.15-0.03c2.43-0.8,4.69-2.01,6.9-3.3c1.39,0.2,2.79,0.33,4.19,0.42c-5.24-4.1-13.2-5.68-19.51-3.22
		c-0.28,0.15-0.84,0.44-1.12,0.58c-2.14,1.02-4.3,1.99-6.36,3.17C200.67,152.13,201.21,151.1,202.45,150.48z"/>
</g>
<g>
	<path fill="#955B8E" d="M251.85,150.04c0.62-1.99,2.61-2.95,4.19-4.08c1.7,4.34,0.15,9.08-1.64,13.13
		C253.17,156.21,251.83,153.24,251.85,150.04z"/>
</g>
<g>
	<path fill="#312B63" d="M208.32,149.82c6.31-2.46,14.27-0.88,19.51,3.22c-1.4-0.09-2.8-0.22-4.19-0.42
		c-1.57-0.72-3.13-1.46-4.72-2.11C215.39,150.23,211.85,150.08,208.32,149.82z"/>
</g>
<g>
	<g>
		<path fill="#2A6CA0" d="M154.57,150.47c3.27-0.48,6.64-0.74,9.87,0.14c-0.55,1.89-1.38,3.67-2.58,5.22
			c-0.71,0.02-2.11,0.05-2.82,0.07c-0.55,0-1.64-0.01-2.19-0.01c-0.69-0.74-1.39-1.47-2.09-2.19
			C154.7,152.62,154.64,151.54,154.57,150.47z M158.16,151.5c-1.64,1.07,0.4,3.32,1.78,2.16
			C161.53,152.61,159.5,150.32,158.16,151.5z"/>
	</g>
</g>
<g>
	<g>
		<path fill="#254A89" d="M207.2,150.4c0.28-0.14,0.84-0.43,1.12-0.58c3.53,0.26,7.07,0.41,10.6,0.69
			c-0.03,0.75-0.09,2.27-0.13,3.03c-0.68,0.79-1.37,1.58-2.05,2.38c-0.79,0.01-2.36,0.02-3.15,0.03c-0.63-0.01-1.27-0.04-1.89-0.09
			c-0.55-0.69-1.65-2.06-2.2-2.75c-0.01-0.6-0.05-1.79-0.06-2.39c-0.69,0.27-2.07,0.8-2.76,1.06L207.2,150.4z M214.1,151.21
			c-1.8,0.36-1.05,3.28,0.7,2.73C216.55,153.55,215.83,150.66,214.1,151.21z"/>
	</g>
</g>
<g>
	<path fill="#DCF4F4" d="M149.93,152.63c1.55-0.71,3.1-1.43,4.64-2.16c0.07,1.07,0.13,2.15,0.19,3.23c0.7,0.72,1.4,1.45,2.09,2.19
		C154.35,155.26,152.14,153.9,149.93,152.63z"/>
	<path fill="#DCF4F4" d="M164.44,150.61c1.75,0.98,3.58,2.02,4.47,3.93c-2.34,0.5-4.68,1.03-7.05,1.29
		C163.06,154.28,163.89,152.5,164.44,150.61z"/>
	<path fill="#DCF4F4" d="M214.1,151.21c1.73-0.55,2.45,2.34,0.7,2.73C213.05,154.49,212.3,151.57,214.1,151.21z"/>
	<path fill="#DCF4F4" d="M163.34,205.25c7.71,0.6,15.04,3.94,22.88,3.34c3.02-0.01,6.04-0.02,9.05-0.27c-2.64,0.97-5.37,1.63-8.16,2
		c-0.2,2.07-0.39,4.14-0.57,6.22c1.22,0.58,2.43,1.17,3.65,1.76c-4.26,0.5-8.65,0.27-12.78-0.89c-3.9-1.55-7.55-3.67-11.34-5.46
		C165.25,209.68,164.4,207.42,163.34,205.25z"/>
</g>
<g>
	<path fill="#FEFEFA" d="M158.16,151.5c1.34-1.18,3.37,1.11,1.78,2.16C158.56,154.82,156.52,152.57,158.16,151.5z"/>
	<path fill="#FEFEFA" d="M94.27,256.29c7.27,0.01,14.55,0,21.82,0.01c0.21,1.49-0.47,3.48,0.95,4.53
		c4.99,4.05,10.21,7.82,15.25,11.83c7.68,6.02,15.42,11.97,23.14,17.95c6.86,5.48,13.88,10.76,20.77,16.21
		c2.86,2.7,7.01,1.5,10.54,1.67c-0.03,1.14-0.06,2.29-0.09,3.43c-3.47,0.14-6.94,0.13-10.4,0.04
		c-16.66-12.48-33.92-24.13-50.49-36.72c0.92-2.59,0.44-5.62-1.84-7.34c-2.25-0.53-5.02-0.62-6.34,1.67
		c-2.97-2.07-5.86-4.26-8.81-6.35c-4.32-3.07-9.53-4.43-14.26-6.73L94.27,256.29z"/>
</g>
<g>
	<path fill="#CBEDEF" d="M206.68,151.78c0.69-0.26,2.07-0.79,2.76-1.06c0.01,0.6,0.05,1.79,0.06,2.39c0.55,0.69,1.65,2.06,2.2,2.75
		c-2.41-0.38-4.78-0.96-7.19-1.34C205.2,153.58,205.94,152.68,206.68,151.78z"/>
	<path fill="#CBEDEF" d="M195.27,208.32c4.82-1.39,9.74-2.41,14.66-3.36c-0.7,2.25-1.4,4.5-2.08,6.75
		c-5.48,3.13-11.21,6.3-17.66,6.59c-1.22-0.59-2.43-1.18-3.65-1.76c0.18-2.08,0.37-4.15,0.57-6.22
		C189.9,209.95,192.63,209.29,195.27,208.32z"/>
</g>
<g>
	<path fill="#C7EAEE" d="M218.92,150.51c1.59,0.65,3.15,1.39,4.72,2.11c-2.21,1.29-4.47,2.5-6.9,3.3c0.68-0.8,1.37-1.59,2.05-2.38
		C218.83,152.78,218.89,151.26,218.92,150.51z"/>
	<path fill="#C7EAEE" d="M257.53,256.25c7.21,0.09,14.41,0.07,21.61-0.03c0.06,0.04,0.17,0.13,0.23,0.17
		c-4.37,1.97-8.98,3.45-13.12,5.89c-3.44,2.22-6.62,4.82-9.98,7.15c-0.57-0.5-1.71-1.5-2.27-2c-1.8,0.28-4.09-0.35-5.36,1.31
		c-1.99,1.85-1.21,4.79-1.46,7.19c-16.1,11.68-32.32,23.19-48.4,34.89c-3.48,2.86-8.33,1.12-12.43,1.68
		c-3.36-0.04-6.86,0.59-10.1-0.54c3.46,0.09,6.93,0.1,10.4-0.04c0.03-1.14,0.06-2.29,0.09-3.43c3.4-0.28,7.42,1.04,10.25-1.4
		c7.14-5.66,14.4-11.16,21.55-16.81c7.64-5.86,15.19-11.84,22.82-17.71c5.36-4.12,10.7-8.28,16.07-12.39
		C257.47,258.87,257.5,257.56,257.53,256.25z"/>
</g>
<g>
	<path fill="#B77B97" d="M232.88,151.61c0.49,4.04-3.28,6.13-5.88,8.42c-2.03,1.6-3.82,3.55-6.1,4.81
		c-4.3,0.55-8.64,0.24-12.96,0.19c-2.31-3.51-7.18-6.09-6.83-10.71c1.13,0.08,2.26,0.14,3.4,0.2c2.41,0.38,4.78,0.96,7.19,1.34
		c0.62,0.05,1.26,0.08,1.89,0.09c0.18,0.78,0.54,2.34,0.72,3.12c2.22,0.1,4.55,0.2,6.41-1.25
		C224.46,155.18,228.51,153.02,232.88,151.61z"/>
</g>
<g>
	<path fill="#BD819B" d="M145.31,152.65c1.53,0.04,3.08,0.1,4.62-0.02c2.21,1.27,4.42,2.63,6.92,3.26c0.55,0,1.64,0.01,2.19,0.01
		c-0.04,0.85-0.12,2.55-0.16,3.41C153.45,159.52,149.3,155.77,145.31,152.65z"/>
</g>
<g>
	<path fill="#CE929C" d="M179.07,158.05c0.92-2.22,2.15-4.3,3.48-6.29c-0.67,8.01-1.82,15.99-2.85,23.96
		c-0.04,0.31-0.13,0.92-0.18,1.23c-3.28,0.5-6.55,1.11-9.77,1.91c1.67-1.51,3.1-3.31,3.76-5.49
		C175.31,168.25,177.27,163.18,179.07,158.05z"/>
</g>
<g>
	<path fill="#D0929E" d="M140.73,153.13c1.53-0.15,3.06-0.28,4.58-0.48c3.99,3.12,8.14,6.87,13.57,6.66
		c1.97-0.04,3.99,0.03,5.91-0.5c1.57-1.21,2.76-2.84,4.12-4.27c1.42,0,2.85-0.02,4.28-0.04c-1.27,4.11-4.72,7.03-7.53,10.11
		c-4.26,0.96-8.98,0.64-13.34,0.1c-2.82-1.82-5.18-4.25-7.79-6.35C142.94,156.89,140.7,155.58,140.73,153.13z"/>
</g>
<g>
	<path fill="#A57097" d="M161.86,155.83c2.37-0.26,4.71-0.79,7.05-1.29c-1.36,1.43-2.55,3.06-4.12,4.27
		c-1.92,0.53-3.94,0.46-5.91,0.5c0.04-0.86,0.12-2.56,0.16-3.41C159.75,155.88,161.15,155.85,161.86,155.83z"/>
</g>
<g>
	<path fill="#A76E91" d="M128.61,157.05c1.03,2.48,0.25,6.7,3.38,7.53c-0.34,0.25-1.03,0.73-1.38,0.98
		c-0.35,1.9-0.49,3.83-0.68,5.76c-3.74,0.56-5.9-2.85-8.03-5.29c0.69-2.54,1.5-5.04,2.46-7.49
		C125.78,158.04,127.19,157.54,128.61,157.05z"/>
</g>
<g>
	<path fill="#965B8E" d="M244.93,157.6c1.29,0.2,2.58,0.46,3.85,0.78c1.75,2,2.35,4.89,2.29,7.49c-1.52,2.91-3.93,5.97-7.51,6.02
		c-0.32-1.72-0.66-3.44-0.94-5.16c0.07-0.39,0.2-1.16,0.27-1.54C243.5,162.64,244.22,160.12,244.93,157.6z"/>
</g>
<g>
	<path fill="#FFCCB0" d="M179.7,175.72c2.33,0.15,4.65,0.31,6.98,0.46c0.11,3.3,0.18,6.6,0.23,9.91c-2.74,0.08-5.48,0.13-8.22,0.16
		c0.17-3.11,0.4-6.22,0.83-9.3C179.57,176.64,179.66,176.03,179.7,175.72z"/>
</g>
<g>
	<path fill="#CB919E" d="M193.75,176.16c3.47,1.09,6.99,2.03,10.54,2.86c1.58,1.15,1.4,3.11,1.21,4.83
		c-3.54,0.46-6.99,1.36-10.45,2.22C194.64,182.76,194.21,179.46,193.75,176.16z"/>
</g>
<g>
	<path fill="#DDA5A6" d="M169.75,178.86c3.22-0.8,6.49-1.41,9.77-1.91c-0.43,3.08-0.66,6.19-0.83,9.3c2.74-0.03,5.48-0.08,8.22-0.16
		c2.71-0.08,5.42-0.05,8.14-0.02c-4.63,0.75-9.35,1.2-14.04,0.89c-4.25-0.71-8.26-2.45-12.53-3.09c-0.13-1.18-0.2-2.36-0.28-3.55
		C168.59,179.96,169.36,179.22,169.75,178.86z"/>
</g>
<g>
	<path fill="#C68B9B" d="M168.48,183.87c4.27,0.64,8.28,2.38,12.53,3.09c4.69,0.31,9.41-0.14,14.04-0.89
		c3.46-0.86,6.91-1.76,10.45-2.22c-0.76,3.75-4.84,3.96-7.79,5.01c-3.37,0.81-5.93,3.47-7.6,6.38c-0.36,1.79,0.82,3.5,1.28,5.2
		c-1.56,0.54-3.13,1.07-4.66,1.68c-0.1-1.77-0.24-3.53-0.39-5.29c-2.35-1.66-4.32-3.75-6.24-5.87
		C177.03,187.27,170.21,188.98,168.48,183.87z"/>
</g>
<g>
	<path fill="#A76F92" d="M160.92,202.61c5.73,0.86,11.34-1.24,17.06-1.2c2.99,0.24,5.86,1.22,8.78,1.86
		c-0.18,1.77-0.36,3.54-0.54,5.32c-7.84,0.6-15.17-2.74-22.88-3.34C162.56,204.34,161.73,203.48,160.92,202.61z"/>
</g>
<g>
	<path fill="#9B4E85" d="M158.41,203.22c0.63-0.15,1.88-0.46,2.51-0.61c0.81,0.87,1.64,1.73,2.42,2.64c1.06,2.17,1.91,4.43,2.73,6.7
		c3.79,1.79,7.44,3.91,11.34,5.46c4.13,1.16,8.52,1.39,12.78,0.89c6.45-0.29,12.18-3.46,17.66-6.59c0.68-2.25,1.38-4.5,2.08-6.75
		c1.24-0.14,2.49-0.23,3.73-0.31c-1.41,3.06-2.46,6.61-5.4,8.59c-2.98,2.11-5.72,4.73-9.14,6.1c-4.49,0.89-9.14,1.05-13.7,0.82
		c-3.84-0.45-7.78-0.76-11.42-2.13c-3.32-1.58-6.39-3.64-9.5-5.6C161.1,210.49,160.16,206.43,158.41,203.22z"/>
</g>
<g>
	<path fill="#B58198" d="M147.28,219.79c2.74,3.68,5.55,7.31,8.69,10.66c4.76,7.73,10.86,14.51,16.11,21.9
		c1.38,0.3,2.75,0.59,4.13,0.88c0.16,2.78-0.05,5.57-0.83,8.25c-3.39-0.34-5.16-3.37-7.09-5.75c-6.98-9.03-14.12-17.93-21.14-26.93
		c0-0.49,0-1.47,0-1.96C147.16,224.49,147.22,222.14,147.28,219.79z"/>
</g>
<g>
	<path fill="#4897B6" d="M138.15,227.07c3-0.12,6-0.2,9-0.23c0,0.49,0,1.47,0,1.96c0.01,4.13,0,8.26-0.01,12.39
		c-5.7,3.98-11.24,8.2-16.94,12.19c0.2,2.75,0.43,5.5,0.75,8.24c0.42,3.68,0.8,7.37,1.34,11.04c-5.04-4.01-10.26-7.78-15.25-11.83
		c-1.42-1.05-0.74-3.04-0.95-4.53c0.11-5.95,0.08-11.9-0.17-17.85c4.05-0.43,8.13,0.11,12.18-0.26
		C132.02,235.09,134.68,230.66,138.15,227.07z"/>
</g>
<g>
	<path fill="#B6819B" d="M202.07,259.14c7.89-10.97,16.33-21.54,24.26-32.49c-0.01,4.81,0.05,9.62,0.01,14.43
		c-0.01,6.94-0.02,13.89-0.01,20.84c5.39,0.39,10.79,0.25,16.19,0.08l-0.1,0.91c-5.47-0.12-10.95-0.27-16.42,0.07
		c-5.61,7.07-10.87,14.43-16.59,21.42c-1.39,1.71-2.54,3.6-3.65,5.5c4.25,0.35,8.52,0.4,12.78,0.38
		c-7.15,5.65-14.41,11.15-21.55,16.81c-2.83,2.44-6.85,1.12-10.25,1.4c-0.06-6-0.05-12-0.05-18c1.39-0.27,2.8-0.54,4.2-0.8
		c2.42-9,3.98-18.22,5.72-27.37c-3.22,0.15-6.43,0.37-9.63,0.68c0.04-2.45-0.86-5.25,0.61-7.44c2.84-1.53,6.17-1.52,9.25-2.23
		c-0.01,2.94,0.08,5.89,0.3,8.83C199.08,261.69,200.99,260.92,202.07,259.14z"/>
</g>
<g>
	<path fill="#4083AD" d="M226.33,226.65c2.89,0,5.8-0.18,8.69,0.15c3.91,3.25,6.55,7.77,10.01,11.49c4.43,0.26,9.04-0.72,13.34,0.64
		c-1.54,5.66-0.59,11.54-0.84,17.32c-0.03,1.31-0.06,2.62-0.1,3.93c-5.37,4.11-10.71,8.27-16.07,12.39
		c0.36-3.22,0.71-6.44,1.06-9.66l0.1-0.91c0.3-2.75,0.64-5.5,1.01-8.25c-5.61-4.39-11.5-8.39-17.19-12.67
		C226.38,236.27,226.32,231.46,226.33,226.65z"/>
	<path fill="#4083AD" d="M270.88,267.46c2.84-1.97,5.69-3.94,8.57-5.87c17.11,7.28,34.4,14.13,51.4,21.65
		c-1.03,2.67-2.05,5.34-2.97,8.04C308.7,283.8,289.92,275.3,270.88,267.46z"/>
</g>
<g>
	<path fill="#EAB9AB" d="M147.15,228.8c7.02,9,14.16,17.9,21.14,26.93c1.93,2.38,3.7,5.41,7.09,5.75c0.19,0.04,0.57,0.11,0.76,0.14
		c2.33,9.31,4.04,18.75,6.23,28.09c1.44,0.25,2.87,0.51,4.32,0.78c0,6-0.01,12,0.05,18c-3.53-0.17-7.68,1.03-10.54-1.67
		c-6.89-5.45-13.91-10.73-20.77-16.21c4.15-0.4,8.32-0.55,12.49-0.66c-6.66-9.63-13.91-18.83-20.76-28.33
		c0.04-6.81,0-13.62-0.02-20.43C147.15,237.06,147.16,232.93,147.15,228.8z"/>
</g>
<g>
	<path fill="#5AC0CF" d="M94.27,256.29c7.18-5.99,14.4-11.93,21.65-17.84c0.25,5.95,0.28,11.9,0.17,17.85
		C108.82,256.29,101.54,256.3,94.27,256.29z"/>
	<path fill="#5AC0CF" d="M124.69,282.87c-0.13-2.6-0.16-5.26,1.07-7.63c16.57,12.59,33.83,24.24,50.49,36.72
		c3.24,1.13,6.74,0.5,10.1,0.54c-0.01,1.45-0.03,2.89-0.04,4.34c-3.38-0.07-6.75,0.08-10.12,0.21c-1.77-0.45-3.48-1.12-4.99-2.15
		C155.7,304.23,140.38,293.28,124.69,282.87z"/>
	<path fill="#5AC0CF" d="M20.13,304.03c6.37-6.84,12.52-13.89,18.87-20.76c1.31,3.08,2.49,6.22,3.51,9.42
		c3.84,11.12,7.58,22.27,11.42,33.39c1.34,3.86,3.01,7.74,2.89,11.91c0.01,10.67-0.19,21.34,0.07,32.01H0v-0.98
		c6.27-20.17,11.47-40.68,17.43-60.95C17.94,306.49,19.06,305.24,20.13,304.03z"/>
</g>
<g>
	<path fill="#51ABC3" d="M257.53,256.25c0.25-5.78-0.7-11.66,0.84-17.32c6.86,5.84,13.97,11.37,20.77,17.29
		C271.94,256.32,264.74,256.34,257.53,256.25z"/>
	<path fill="#51ABC3" d="M93.89,261.73c0.12-1.81,0.24-3.63,0.38-5.44l0.24,0.2c0.25,1.73,0.13,3.55,0.72,5.22
		c2.06,2.55,5.04,4.07,7.68,5.92c-17.02,6.16-33.69,13.23-50.53,19.86c-3.45,1.38-7.39,2.19-9.87,5.2c-1.02-3.2-2.2-6.34-3.51-9.42
		C57.17,275.81,75.58,268.86,93.89,261.73z"/>
	<path fill="#51ABC3" d="M266.25,262.28c4.14-2.44,8.75-3.92,13.12-5.89c0.02,1.73,0.05,3.46,0.08,5.2
		c-2.88,1.93-5.73,3.9-8.57,5.87c-5.23,3.64-10.49,7.23-15.69,10.89c0.12-2.51,0.32-5.02,0.34-7.54c-0.32-0.49-0.96-1.49-1.28-1.98
		l-0.37-0.52c-2.2-0.04-4.89-0.2-5.54,2.46c-0.06,4.02,0.69,8.01,0.59,12.04c-14.17,9.47-28.05,19.36-42.11,29
		c-3.07,1.94-5.83,4.82-9.63,5.17c-3.44-0.05-6.89-0.13-10.34-0.13l-0.54-0.01c0.01-1.45,0.03-2.89,0.04-4.34
		c4.1-0.56,8.95,1.18,12.43-1.68c16.08-11.7,32.3-23.21,48.4-34.89c0.25-2.4-0.53-5.34,1.46-7.19c1.27-1.66,3.56-1.03,5.36-1.31
		c0.56,0.5,1.7,1.5,2.27,2C259.63,267.1,262.81,264.5,266.25,262.28z"/>
</g>
<g>
	<path fill="#945B92" d="M226.34,241.08c5.69,4.28,11.58,8.28,17.19,12.67c-0.37,2.75-0.71,5.5-1.01,8.25
		c-5.4,0.17-10.8,0.31-16.19-0.08C226.32,254.97,226.33,248.02,226.34,241.08z"/>
</g>
<g>
	<path fill="#B7819B" d="M130.2,253.38c5.7-3.99,11.24-8.21,16.94-12.19c0.02,6.81,0.06,13.62,0.02,20.43
		c-5.4-0.05-10.8-0.05-16.21,0C130.63,258.88,130.4,256.13,130.2,253.38z"/>
</g>
<g>
	<path fill="#C893A0" d="M186.77,246.83c2.7-0.08,5.45-0.41,8.12,0.11c2.24,1.44,3.94,3.55,5.77,5.47
		c-1.27,0.32-2.55,0.63-3.82,0.92c-3.08,0.71-6.41,0.7-9.25,2.23c-1.47,2.19-0.57,4.99-0.61,7.44c3.2-0.31,6.41-0.53,9.63-0.68
		c-1.74,9.15-3.3,18.37-5.72,27.37c-1.4,0.26-2.81,0.53-4.2,0.8c-0.06-8.99,0.15-17.99-0.1-26.97c-3.46-0.77-6.95-1.38-10.45-1.9
		c-0.19-0.03-0.57-0.1-0.76-0.14c0.78-2.68,0.99-5.47,0.83-8.25c3.46,0.74,6.96,1.28,10.46,1.75
		C186.73,252.26,186.78,249.54,186.77,246.83z"/>
</g>
<g>
	<path fill="#5BC0D0" d="M94.51,256.49c4.73,2.3,9.94,3.66,14.26,6.73c2.95,2.09,5.84,4.28,8.81,6.35
		c-0.37,2.94,0.13,5.89,0.83,8.75c-5.14-3.6-10.32-7.14-15.5-10.69c-2.64-1.85-5.62-3.37-7.68-5.92
		C94.64,260.04,94.76,258.22,94.51,256.49z"/>
</g>
<g>
	<path fill="#F9CCAF" d="M130.95,261.62c5.41-0.05,10.81-0.05,16.21,0c6.85,9.5,14.1,18.7,20.76,28.33
		c-4.17,0.11-8.34,0.26-12.49,0.66c-7.72-5.98-15.46-11.93-23.14-17.95C131.75,268.99,131.37,265.3,130.95,261.62z"/>
</g>
<g>
	<path fill="#F9CCAE" d="M176.14,261.62c3.5,0.52,6.99,1.13,10.45,1.9c0.25,8.98,0.04,17.98,0.1,26.97
		c-1.45-0.27-2.88-0.53-4.32-0.78C180.18,280.37,178.47,270.93,176.14,261.62z"/>
</g>
<g>
	<path fill="#C793A0" d="M209.41,284.4c5.72-6.99,10.98-14.35,16.59-21.42c5.47-0.34,10.95-0.19,16.42-0.07
		c-0.35,3.22-0.7,6.44-1.06,9.66c-7.63,5.87-15.18,11.85-22.82,17.71c-4.26,0.02-8.53-0.03-12.78-0.38
		C206.87,288,208.02,286.11,209.41,284.4z"/>
</g>
<g>
	<path fill="#4797B8" d="M52.38,287.49c16.84-6.63,33.51-13.7,50.53-19.86c5.18,3.55,10.36,7.09,15.5,10.69
		c0.27,27.2-0.02,54.43,0.14,81.64c0.06,3.35-0.02,6.71-0.49,10.04H56.89c-0.26-10.67-0.06-21.34-0.07-32.01
		c0.12-4.17-1.55-8.05-2.89-11.91c-3.84-11.12-7.58-22.27-11.42-33.39C44.99,289.68,48.93,288.87,52.38,287.49z"/>
	<path fill="#4797B8" d="M124.69,282.87c15.69,10.41,31.01,21.36,46.51,32.03c1.51,1.03,3.22,1.7,4.99,2.15
		c-0.07,1.55-0.13,3.11-0.22,4.68c-2.76,0.92-3.68,3.83-4.96,6.14c1.4,2.16,2.19,5.23,5.01,5.92c0.43,7.02,0.54,14.07-0.06,21.08
		c-2.77,0.87-3.62,3.83-4.94,6.09c1.29,2.13,2.12,4.92,4.65,5.92c0.22,0.78,0.68,2.34,0.91,3.12h-51.8
		C124.71,340.96,124.88,311.91,124.69,282.87z"/>
	<path fill="#4797B8" d="M186.85,316.85c3.45,0,6.9,0.08,10.34,0.13c0.1,17.67,0.16,35.35-0.03,53.02h-10.28
		C186.59,352.29,186.71,334.56,186.85,316.85z"/>
</g>
<g>
	<path fill="#3E77A6" d="M117.58,269.57c1.32-2.29,4.09-2.2,6.34-1.67c2.28,1.72,2.76,4.75,1.84,7.34c-1.23,2.37-1.2,5.03-1.07,7.63
		c0.19,29.04,0.02,58.09,0.09,87.13h-6.72c0.47-3.33,0.55-6.69,0.49-10.04c-0.16-27.21,0.13-54.44-0.14-81.64
		C117.71,275.46,117.21,272.51,117.58,269.57z"/>
</g>
<g>
	<path fill="#366E9F" d="M255.19,278.35c5.2-3.66,10.46-7.25,15.69-10.89c19.04,7.84,37.82,16.34,57,23.82
		c-3.31,10.42-7.19,20.65-10.54,31.06c-1.59,5.17-4.39,10.14-4.25,15.7c0.02,10.65,0.2,21.31-0.07,31.96h-57.93
		C255.19,339.45,255.02,308.9,255.19,278.35z"/>
	<path fill="#366E9F" d="M206.82,311.81c14.06-9.64,27.94-19.53,42.11-29c0.1,29.06,0.05,58.13,0.06,87.19h-51.83
		c0.19-17.67,0.13-35.35,0.03-53.02C200.99,316.63,203.75,313.75,206.82,311.81z"/>
</g>
<g>
	<path fill="#2D5B96" d="M248.34,270.77c0.65-2.66,3.34-2.5,5.54-2.46l0.37,0.52c-3.33,1.88-1.97,6.05-2.21,9.16
		c-0.04,30.67,0.11,61.34-0.05,92.01h-3c-0.01-29.06,0.04-58.13-0.06-87.19C249.03,278.78,248.28,274.79,248.34,270.77z"/>
	<g>
		<path fill="#2D5B96" d="M171.01,327.87c1.28-2.31,2.2-5.22,4.96-6.14c1.67,0.12,3.34,0.3,5.01,0.46c1.1,1.86,2.18,3.74,3.23,5.64
			c-1.02,1.75-1.91,3.62-3.21,5.2c-1.49,0.79-3.34,0.52-4.98,0.76C173.2,333.1,172.41,330.03,171.01,327.87z M176.04,329.82
			c0.68,0.01,2.04,0.04,2.71,0.06c0.35-0.48,1.03-1.44,1.37-1.92c-0.66-1.16-1.37-3.01-3.1-2.34
			C174.76,325.91,175.33,328.41,176.04,329.82z"/>
	</g>
</g>
<g>
	<path fill="#224589" d="M252.04,277.99c0.24-3.11-1.12-7.28,2.21-9.16c0.32,0.49,0.96,1.49,1.28,1.98
		c-0.02,2.52-0.22,5.03-0.34,7.54c-0.17,30.55,0,61.1-0.1,91.65h-3.1C252.15,339.33,252,308.66,252.04,277.99z"/>
</g>
<g>
	<path fill="#2C5B93" d="M327.88,291.28c0.92-2.7,1.94-5.37,2.97-8.04c6.4,6.57,12.21,13.69,18.58,20.29
		c1.31,1.4,2.64,2.88,3.2,4.76c5.93,20.23,11.06,40.71,17.37,60.83V370h-56.98c0.27-10.65,0.09-21.31,0.07-31.96
		c-0.14-5.56,2.66-10.53,4.25-15.7C320.69,311.93,324.57,301.7,327.88,291.28z"/>
</g>
<g>
	<path fill="#40B7BF" d="M176.19,317.05c3.37-0.13,6.74-0.28,10.12-0.21l0.54,0.01c-0.14,17.71-0.26,35.44,0.03,53.15h-10.3
		c-0.23-0.78-0.69-2.34-0.91-3.12c1.73-0.09,3.46-0.21,5.19-0.32c1.14-1.86,2.27-3.74,3.38-5.62c-1.1-1.89-2.2-3.77-3.32-5.64
		c-1.65-0.15-3.31-0.32-4.96-0.43c0.6-7.01,0.49-14.06,0.06-21.08c1.64-0.24,3.49,0.03,4.98-0.76c1.3-1.58,2.19-3.45,3.21-5.2
		c-1.05-1.9-2.13-3.78-3.23-5.64c-1.67-0.16-3.34-0.34-5.01-0.46C176.06,320.16,176.12,318.6,176.19,317.05z"/>
</g>
<g>
	<path fill="#3F80AB" d="M176.04,329.82c-0.71-1.41-1.28-3.91,0.98-4.2c1.73-0.67,2.44,1.18,3.1,2.34
		c-0.34,0.48-1.02,1.44-1.37,1.92C178.08,329.86,176.72,329.83,176.04,329.82z"/>
</g>
<g>
	<g>
		<path fill="#2E5B95" d="M171.02,360.96c1.32-2.26,2.17-5.22,4.94-6.09c1.65,0.11,3.31,0.28,4.96,0.43
			c1.12,1.87,2.22,3.75,3.32,5.64c-1.11,1.88-2.24,3.76-3.38,5.62c-1.73,0.11-3.46,0.23-5.19,0.32
			C173.14,365.88,172.31,363.09,171.02,360.96z M175.2,360.72c0.26,0.58,0.78,1.72,1.03,2.29c1.12,0.01,2.18-0.19,3.19-0.59
			c0.67-1.21-0.01-2.48-0.32-3.66C177.44,358.66,175.8,359.01,175.2,360.72z"/>
	</g>
</g>
<g>
	<path fill="#3F7FAA" d="M175.2,360.72c0.6-1.71,2.24-2.06,3.9-1.96c0.31,1.18,0.99,2.45,0.32,3.66c-1.01,0.4-2.07,0.6-3.19,0.59
		C175.98,362.44,175.46,361.3,175.2,360.72z"/>
</g>
</svg>
